<svg width="152" height="31" viewBox="0 0 152 31" fill="none" xmlns="http://www.w3.org/2000/svg">
<g clip-path="url(#clip0_5185_23284)">
<path d="M67.1988 14.5255V8.6424L71.816 8.6424L71.8746 8.62788C73.6556 8.62788 75.5398 9.39122 75.5398 11.5331C75.5413 13.0932 74.3371 14.3933 72.7688 14.5255L67.1988 14.5255ZM74.6457 16.9085C76.9609 16.119 78.5095 13.9524 78.4934 11.5266C78.4773 8.37875 75.9085 5.83016 72.7321 5.81055L64.1133 5.81055V25.0213H67.1988V17.2491H71.5741L75.7817 25.0213H79.3062L74.7043 16.8932L74.6457 16.9085Z" fill="#FAFBFD"/>
<path d="M52.3951 21.2372C51.2547 21.8778 49.9611 22.201 48.65 22.1741H45.5205V8.65693H48.65C49.9597 8.6424 51.2503 8.96561 52.3951 9.59386V9.61565C54.2933 10.7857 55.0261 12.9792 55.0261 15.4261C55.0261 17.7219 54.3885 20.1115 52.3951 21.2372ZM53.7216 7.02275C52.3518 6.2289 50.7937 5.81055 49.207 5.81055L42.4717 5.81055V25.0278H49.207C50.7908 25.0125 52.3445 24.5978 53.7216 23.8221V23.8294C56.7998 22.0935 58.1043 18.7453 58.075 15.4261C58.0457 12.1069 56.8804 8.86102 53.7216 7.02275Z" fill="#FAFBFD"/>
<path d="M131.852 5.81055L128.187 5.81055L122.975 11.8527L120.433 15.0629L120.484 11.3304V5.81055L117.436 5.81055V25.014H120.484V18.6952L122.954 15.9781L129.051 25.0278H132.599L124.786 13.9372L131.852 5.81055Z" fill="#FAFBFD"/>
<path d="M139.356 10.7766C139.356 9.06975 141.048 8.21997 143.35 8.21997L143.342 8.25702C145.116 8.30059 146.862 8.70297 148.472 9.44016L149.462 6.89883C147.471 6.02363 145.322 5.55662 143.145 5.52539C138.901 5.52539 136.329 7.58882 136.329 10.9952C136.329 18.0469 147.271 15.6435 147.271 20.0013C147.271 21.6493 145.665 22.579 143.116 22.579C141.076 22.5369 139.071 22.0401 137.252 21.1264L136.167 23.5965C138.31 24.6962 140.687 25.2721 143.1 25.2736C147.535 25.2736 150.305 23.2697 150.305 19.8125C150.305 12.9119 139.356 15.1344 139.356 10.7766Z" fill="#FAFBFD"/>
<path d="M107.254 13.749L107.394 20.285H107.342L103.927 14.7659L98.0638 5.81055L94.9043 5.81055V25.0278H97.9539V15.8263L97.8139 10.3935H97.8725L101.281 15.6883L107.21 25.0278H110.302V5.81055L107.254 5.81055V13.749Z" fill="#FAFBFD"/>
<path d="M87.8389 5.81055L84.79 5.81055V25.0278H87.8389V5.81055Z" fill="#FAFBFD"/>
<path d="M16.0007 2.07181e-06C7.44417 -0.00435575 0.503666 6.86647 0.500002 15.3461C0.496337 23.5693 7.02935 30.3355 15.3191 30.6928L15.3191 26.6263C15.6343 20.3358 4.86072 23.4879 10.5626 5.59907L21.556 5.59907L21.5956 5.63176C27.2733 23.4828 16.5145 20.3394 16.8369 26.6263V30.6856C25.0549 30.2425 31.4911 23.5104 31.4948 15.354C31.4948 14.81 31.4655 14.2675 31.4061 13.7264C30.567 5.92082 23.9218 2.07181e-06 16.0007 2.07181e-06Z" fill="#FAFBFD"/>
</g>
<defs>
<clipPath id="clip0_5185_23284">
<rect width="151.304" height="31.0002" fill="white" transform="translate(0.5)"/>
</clipPath>
</defs>
</svg>
